<?xml version="1.0" encoding="iso-8859-1"?>
<!-- Generator: Adobe Illustrator 19.0.0, SVG Export Plug-In . SVG Version: 6.00 Build 0)  -->
<svg version="1.1" id="Capa_1" xmlns="http://www.w3.org/2000/svg" xmlns:xlink="http://www.w3.org/1999/xlink" x="0px" y="0px"
	 viewBox="0 0 511.999 511.999" style="enable-background:new 0 0 511.999 511.999;" xml:space="preserve">
<g>
	<path style="fill:#FEB756;" d="M494.933,167.611c-4.268,0-7.726,3.459-7.726,7.726v187.734c0,4.267,3.458,7.726,7.726,7.726
		s7.726-3.459,7.726-7.726V175.337C502.659,171.069,499.201,167.611,494.933,167.611z"/>
	<path style="fill:#FEB756;" d="M262.516,328.937c0,0-48.397,0.001-56.555,0.001c-0.769,0-1.529-0.143-2.244-0.423l-158.51-61.908
		c-1.959-0.765-3.395-2.476-3.811-4.538l-5.435-27.001l-5.153-25.599l-12.253-60.866c-0.771-3.827,2.156-7.401,6.06-7.401h56.896
		c2.342,0,4.481,1.323,5.528,3.417l30.718,61.434c1.047,2.094,3.187,3.417,5.529,3.417h76.706c2.828,0,5.294-1.914,5.989-4.654
		c3.165-12.464,11.805-46.493,14.97-58.957c0.696-2.741,3.162-4.654,5.989-4.654l105.857-0.001c14.138,0,25.6,11.462,25.6,25.601
		h-0.001l0.001,42.666l85.335,0.001c14.139,0,25.601,11.462,25.601,25.601h-0.002l0.002,68.27c0,14.139-11.462,25.6-25.601,25.6
		v-0.001l-102.4-0.002h-78.817V328.937z"/>
</g>
<path style="fill:#57555C;" d="M281.598,337.473c-13.972,0-25.33-11.195-25.594-25.103c-0.272-14.349,11.819-26.094,26.171-26.094
	h52.977c3.414,0,6.181,2.767,6.181,6.181v38.836c0,3.414-2.767,6.181-6.181,6.181H281.598z"/>
<g>
	<path style="fill:#FA8043;" d="M362.667,286.269c7.069,0,12.799-5.731,12.799-12.799c0-7.069-5.731-12.8-12.799-12.8H234.665
		c-7.069,0-12.8,5.731-12.8,12.8c0,7.069,5.731,12.799,12.8,12.799H362.667z"/>
	<path style="fill:#FA8043;" d="M64.001,235.068c7.069,0,12.799-5.731,12.799-12.799c0-7.069-5.731-12.8-12.799-12.8H12.799
		C5.731,209.469,0,215.199,0,222.268c0,7.069,5.731,12.799,12.799,12.799h51.202V235.068z"/>
</g>
<path style="fill:#57555C;" d="M467.273,282.002H499.2c7.069,0,12.799-5.731,12.799-12.799c0-7.069-5.731-12.799-12.799-12.799
	h-31.927V282.002z"/>
<path style="fill:#FA8043;" d="M255.999,159.077h-38.404c-1.194,4.701-2.523,9.936-3.861,15.208c0.609,0.155,1.242,0.245,1.9,0.245
	H256c4.267,0,7.726-3.459,7.726-7.726S260.266,159.077,255.999,159.077z"/>
<path style="fill:#C0E3F0;" d="M345.599,226.535c7.069,0,12.8-5.731,12.8-12.799v-4.267l-0.001-42.666h0.001
	c0-14.139-11.462-25.601-25.601-25.601l-76.799,0.001v68.266v4.267c0,7.069,5.731,12.799,12.799,12.799H345.599z"/>
<path style="fill:#A3CFE3;" d="M358.399,166.802c0-14.139-11.462-25.601-25.601-25.601h-20.595
	c14.135,0.004,25.593,11.464,25.593,25.6h-0.001l0.001,42.666v4.267c0,7.069-5.731,12.799-12.8,12.799h20.604
	c7.069,0,12.8-5.731,12.8-12.799v-4.267l-0.001-42.666h0.001V166.802z"/>
<path style="fill:#4DBBEB;" d="M443.734,209.469h-25.601l0,0v119.467l0.003,0.003h25.598v0.001c14.139,0,25.601-11.462,25.601-25.6
	l-0.002-68.27h0.002C469.335,220.931,457.873,209.469,443.734,209.469z"/>
<path style="fill:#38A1D9;" d="M469.335,235.069c0-14.139-11.462-25.6-25.601-25.6h-25.601l0,0h4.996
	c14.138,0,25.6,11.462,25.6,25.6h-0.001l0.001,68.27c0,14.115-11.423,25.56-25.529,25.599h20.534v0.001
	c14.139,0,25.601-11.462,25.601-25.6l-0.002-68.27L469.335,235.069L469.335,235.069z"/>
<polygon style="fill:#4DBBEB;" points="23.775,174.53 101.995,174.53 94.269,159.077 20.664,159.077 "/>
<rect x="308.004" y="286.277" style="fill:#85828C;" width="15.453" height="51.198"/>
<g>
</g>
<g>
</g>
<g>
</g>
<g>
</g>
<g>
</g>
<g>
</g>
<g>
</g>
<g>
</g>
<g>
</g>
<g>
</g>
<g>
</g>
<g>
</g>
<g>
</g>
<g>
</g>
<g>
</g>
</svg>
